<svg width="113" height="60" viewBox="0 0 113 60" fill="none" xmlns="http://www.w3.org/2000/svg">
<g filter="url(#filter0_d_321:671)">
<path d="M4 3H99C104.523 3 109 7.47715 109 13V45C109 50.5228 104.523 55 99 55H4V3Z" fill="#343A40"/>
</g>
<path fill-rule="evenodd" clip-rule="evenodd" d="M75.5 21.75C75.5 21.1533 75.7371 20.581 76.159 20.159C76.581 19.7371 77.1533 19.5 77.75 19.5H82.25C82.8467 19.5 83.419 19.7371 83.841 20.159C84.2629 20.581 84.5 21.1533 84.5 21.75V26.25C84.5 26.8467 84.2629 27.419 83.841 27.841C83.419 28.2629 82.8467 28.5 82.25 28.5H77.75C77.1533 28.5 76.581 28.2629 76.159 27.841C75.7371 27.419 75.5 26.8467 75.5 26.25V21.75ZM87.5 21.75C87.5 21.1533 87.7371 20.581 88.159 20.159C88.581 19.7371 89.1533 19.5 89.75 19.5H94.25C94.8467 19.5 95.419 19.7371 95.841 20.159C96.2629 20.581 96.5 21.1533 96.5 21.75V26.25C96.5 26.8467 96.2629 27.419 95.841 27.841C95.419 28.2629 94.8467 28.5 94.25 28.5H89.75C89.1533 28.5 88.581 28.2629 88.159 27.841C87.7371 27.419 87.5 26.8467 87.5 26.25V21.75ZM75.5 33.75C75.5 33.1533 75.7371 32.581 76.159 32.159C76.581 31.7371 77.1533 31.5 77.75 31.5H82.25C82.8467 31.5 83.419 31.7371 83.841 32.159C84.2629 32.581 84.5 33.1533 84.5 33.75V38.25C84.5 38.8467 84.2629 39.419 83.841 39.841C83.419 40.2629 82.8467 40.5 82.25 40.5H77.75C77.1533 40.5 76.581 40.2629 76.159 39.841C75.7371 39.419 75.5 38.8467 75.5 38.25V33.75ZM87.5 33.75C87.5 33.1533 87.7371 32.581 88.159 32.159C88.581 31.7371 89.1533 31.5 89.75 31.5H94.25C94.8467 31.5 95.419 31.7371 95.841 32.159C96.2629 32.581 96.5 33.1533 96.5 33.75V38.25C96.5 38.8467 96.2629 39.419 95.841 39.841C95.419 40.2629 94.8467 40.5 94.25 40.5H89.75C89.1533 40.5 88.581 40.2629 88.159 39.841C87.7371 39.419 87.5 38.8467 87.5 38.25V33.75Z" fill="white"/>
<defs>
<filter id="filter0_d_321:671" x="0" y="0" width="113" height="60" filterUnits="userSpaceOnUse" color-interpolation-filters="sRGB">
<feFlood flood-opacity="0" result="BackgroundImageFix"/>
<feColorMatrix in="SourceAlpha" type="matrix" values="0 0 0 0 0 0 0 0 0 0 0 0 0 0 0 0 0 0 127 0" result="hardAlpha"/>
<feOffset dy="1"/>
<feGaussianBlur stdDeviation="2"/>
<feColorMatrix type="matrix" values="0 0 0 0 0 0 0 0 0 0 0 0 0 0 0 0 0 0 0.1 0"/>
<feBlend mode="normal" in2="BackgroundImageFix" result="effect1_dropShadow_321:671"/>
<feBlend mode="normal" in="SourceGraphic" in2="effect1_dropShadow_321:671" result="shape"/>
</filter>
</defs>
</svg>
